PathFileType	4	(x/y/z)	S01_P20_T21
DataRate	CameraRate	NumFrames	NumMarkers	Units	OrigDataRate	OrigDataStartFrame	OrigNumFrames
240	240	8	51	mm	240	191	381
Frame#	Time	Sternum			R.Acromium			L.Acromium			Top.Head			R.ASIS			L.ASIS			R.PSIS			L.PSIS			R.Great.Tro			L.Great.Tro			R.Iliac.Crest			L.Iliac.Crest			V.Sacral			R.Thigh.Upper.Post			R.Thigh.Lower.Ant			R.Thigh.Lower.Post			R.Thigh.Upper.Ant			R.Knee.Lat			R.Knee.Med			R.Shank.Upper.Post			R.Shank.Lower.Ant			R.Shank.Lower.Post			R.Shank.Upper.Ant			R.Ankle.Lat			R.Ankle.Med			R.Heel.Upper			R.Heel.Med			R.Heel.Lat			R.Toe.Lat			R.Toe.Med			R.Toe.Tip			L.Thigh.Upper.Post			L.Thigh.Lower.Ant			L.Thigh.Lower.Post			L.Thigh.Upper.Ant			L.Knee.Lat			L.Knee.Med			L.Shank.Upper.Post			L.Shank.Lower.Ant			L.Shank.Lower.Post			L.Shank.Upper.Ant			L.Ankle.Lat			L.Ankle.Med			L.Heel.Upper			L.Heel.Med			L.Heel.Lat			L.Toe.Lat			L.Toe.Med			L.Toe.Tip			Cervical.Spine			Back			
		X1	Y1	Z1	X2	Y2	Z2	X3	Y3	Z3	X4	Y4	Z4	X5	Y5	Z5	X6	Y6	Z6	X7	Y7	Z7	X8	Y8	Z8	X9	Y9	Z9	X10	Y10	Z10	X11	Y11	Z11	X12	Y12	Z12	X13	Y13	Z13	X14	Y14	Z14	X15	Y15	Z15	X16	Y16	Z16	X17	Y17	Z17	X18	Y18	Z18	X19	Y19	Z19	X20	Y20	Z20	X21	Y21	Z21	X22	Y22	Z22	X23	Y23	Z23	X24	Y24	Z24	X25	Y25	Z25	X26	Y26	Z26	X27	Y27	Z27	X28	Y28	Z28	X29	Y29	Z29	X30	Y30	Z30	X31	Y31	Z31	X32	Y32	Z32	X33	Y33	Z33	X34	Y34	Z34	X35	Y35	Z35	X36	Y36	Z36	X37	Y37	Z37	X38	Y38	Z38	X39	Y39	Z39	X40	Y40	Z40	X41	Y41	Z41	X42	Y42	Z42	X43	Y43	Z43	X44	Y44	Z44	X45	Y45	Z45	X46	Y46	Z46	X47	Y47	Z47	X48	Y48	Z48	X49	Y49	Z49	X50	Y50	Z50	X51	Y51	Z51	

191	0.79167	-242.69	1299	283.12	-340.81	1538.4	485.44	-416.49	1561.7	161.81	-381.77	1866.9	326.52	-271.31	1033.4	438.1	-293.84	1044.6	176.71	-513.8	1079.7	363.33	-522.72	1075.6	260.6	-345.7	978.85	521.87	-396.24	993.43	98.319	-348.61	1134.3	510.87	-409.41	1128	112.75	-530.71	1040.5	311.27	-364.35	670.71	495.7	-296.31	599.01	463.88	-363.65	583.48	475.06	-293.38	687.98	485.59	-347.06	517.24	465.05	-348.36	521.38	322.93	-434.73	370.86	487.31	-394.18	277.83	442.9	-454.07	303.24	476.15	-377.99	347.65	460.88	-500.63	106.26	438.81	-469.46	107.4	345.63	-572.41	75.59	380.98	-558.28	44.79	352.74	-564.48	45.93	417.36	-376.97	36.462	483.19	-340.14	39.563	359.68	-279.56	56.699	417.54	-303	712.79	104.05	-198.16	681.48	89.575	-256.29	635.68	117.19	-253.47	758.99	78.013	-187.04	575.8	99.724	-133.81	588.96	237.76	-261.48	454.66	97.092	-217.16	355.3	118.47	-275.98	379.19	105.87	-202.46	429.48	105.01	-329.5	174.16	154.44	-286.59	186.43	245.73	-398.25	163.04	212.75	-388.68	140.54	247.77	-399.79	133.33	186.72	-211.74	65.214	126.9	-165.05	82.829	241.2	-111.35	74.501	180.47	-462.69	1599.4	343.55	-533.43	1290.7	359.51
192	0.79583	-236.62	1298.8	282.95	-334.63	1538.4	485.3	-410.54	1561.6	161.66	-376.36	1866.9	326.27	-265.88	1032.8	437.85	-287.96	1044.7	176.39	-508.15	1079.9	362.74	-516.91	1075.8	260.01	-340.75	978.48	521.43	-390.14	993.8	97.792	-343.17	1133.8	510.68	-403.48	1128.1	112.38	-525.05	1040.7	310.63	-361.97	670.7	495.33	-294.45	598.45	463.75	-361.94	583.46	474.77	-290.8	687.39	485.42	-345.88	517.04	464.83	-346.83	521.08	322.66	-434.09	370.94	487.1	-393.72	277.8	442.82	-453.56	303.37	475.92	-377.37	347.58	460.76	-500.48	106.38	438.66	-469.22	107.4	345.51	-572.27	75.724	380.8	-558.13	44.878	352.66	-564.39	46.125	417.25	-376.95	36.388	483.17	-340.05	39.555	359.67	-279.46	56.5	417.61	-296.56	713	104.09	-191.56	681.85	90.251	-249.83	635.98	117.54	-246.91	759.26	78.273	-180.04	576.16	100.31	-128.06	589.41	238.52	-251.57	452.84	96.763	-204.62	354.67	117.87	-263.99	376.95	105.13	-191.92	429.28	104.85	-311.88	170.28	152.52	-269.4	183.08	244	-380.37	156.65	210.66	-369.96	134.1	245.54	-380.84	127.05	184.41	-190.85	65.189	124.3	-144.79	83.146	238.8	-90.839	77.025	178.07	-456.54	1599.4	343.42	-527.4	1290.7	359.38
193	0.8	-230.54	1298.5	282.76	-328.43	1538.3	485.13	-404.53	1561.5	161.49	-370.95	1866.8	326	-260.45	1032.2	437.59	-282.06	1044.6	176.06	-502.51	1080	362.14	-511.11	1076	259.41	-335.81	978.06	521	-384.03	994.06	97.264	-337.73	1133.2	510.49	-397.56	1128.2	112	-519.41	1040.8	309.98	-359.6	670.66	494.97	-292.61	597.88	463.63	-360.22	583.41	474.48	-288.23	686.77	485.27	-344.7	516.83	464.62	-345.26	520.76	322.39	-433.42	371.03	486.88	-393.24	277.75	442.75	-453.05	303.5	475.69	-376.74	347.5	460.64	-500.32	106.49	438.51	-468.97	107.4	345.4	-572.14	75.853	380.62	-557.97	44.962	352.57	-564.3	46.319	417.14	-376.93	36.307	483.16	-339.95	39.552	359.66	-279.35	56.295	417.68	-290.25	713.07	104.18	-185.11	682.04	90.937	-243.52	636.14	117.93	-240.47	759.38	78.555	-173.18	576.39	100.89	-122.45	589.67	239.29	-241.69	451	96.402	-192.13	354.09	117.23	-252.02	374.75	104.34	-181.45	429.07	104.66	-294.2	166.56	150.5	-252.2	179.85	242.18	-362.37	150.43	208.44	-351.12	127.82	243.17	-361.77	120.97	181.97	-170.02	65.435	121.65	-124.62	83.681	236.36	-70.482	79.787	175.65	-450.36	1599.3	343.26	-521.38	1290.7	359.22
194	0.80417	-224.44	1298.1	282.55	-322.2	1538.1	484.93	-398.44	1561.2	161.29	-365.52	1866.6	325.73	-255.01	1031.6	437.35	-276.14	1044.4	175.71	-496.88	1080	361.52	-505.31	1076	258.8	-330.89	977.6	520.57	-377.91	994.21	96.739	-332.3	1132.6	510.29	-391.63	1128.1	111.61	-513.78	1040.9	309.32	-357.21	670.61	494.6	-290.76	597.3	463.52	-358.5	583.35	474.19	-285.66	686.14	485.15	-343.49	516.61	464.42	-343.66	520.42	322.14	-432.74	371.1	486.66	-392.76	277.7	442.67	-452.52	303.63	475.46	-376.1	347.42	460.53	-500.16	106.6	438.35	-468.72	107.39	345.28	-572	75.977	380.42	-557.81	45.044	352.48	-564.21	46.511	417.01	-376.92	36.218	483.14	-339.86	39.553	359.66	-279.23	56.084	417.76	-284.06	713.02	104.32	-178.81	682.06	91.626	-237.35	636.14	118.36	-234.16	759.34	78.854	-166.44	576.5	101.47	-116.99	589.74	240.07	-231.85	449.16	96.009	-179.72	353.56	116.55	-240.07	372.6	103.51	-171.06	428.86	104.45	-276.49	163.01	148.4	-235	176.76	240.3	-344.27	144.38	206.09	-332.2	121.74	240.68	-342.61	115.09	179.41	-149.27	65.958	118.97	-104.59	84.443	233.92	-50.301	82.79	173.26	-444.17	1599.1	343.08	-515.35	1290.5	359.03
195	0.80833	-218.33	1297.5	282.32	-315.94	1537.8	484.71	-392.3	1560.9	161.06	-360.08	1866.3	325.44	-249.57	1030.8	437.11	-270.2	1044.1	175.35	-491.26	1080	360.89	-499.51	1076	258.17	-326	977.09	520.16	-371.78	994.24	96.216	-326.87	1131.9	510.07	-385.69	1127.9	111.21	-508.15	1040.9	308.65	-354.83	670.53	494.25	-288.91	596.71	463.43	-356.76	583.27	473.9	-283.1	685.48	485.04	-342.27	516.38	464.21	-342.02	520.07	321.88	-432.04	371.18	486.44	-392.27	277.63	442.6	-451.98	303.75	475.22	-375.43	347.33	460.41	-500	106.71	438.19	-468.46	107.38	345.16	-571.86	76.1	380.22	-557.64	45.123	352.38	-564.11	46.703	416.89	-376.9	36.123	483.12	-339.76	39.559	359.65	-279.12	55.867	417.84	-277.99	712.85	104.49	-172.64	681.91	92.31	-231.33	635.99	118.8	-227.95	759.15	79.163	-159.82	576.49	102.04	-111.66	589.61	240.86	-222.04	447.32	95.581	-167.39	353.1	115.84	-228.16	370.5	102.63	-160.76	428.65	104.22	-258.76	159.66	146.21	-217.83	173.84	238.35	-326.11	138.53	203.62	-313.22	115.87	238.06	-323.39	109.44	176.72	-128.63	66.759	116.29	-84.718	85.437	231.48	-30.323	86.033	170.92	-437.95	1598.8	342.88	-509.32	1290.3	358.79
196	0.8125	-212.21	1296.9	282.06	-309.65	1537.5	484.46	-386.08	1560.5	160.8	-354.62	1866	325.14	-244.11	1030	436.88	-264.25	1043.7	174.99	-485.65	1079.8	360.24	-493.71	1075.9	257.54	-321.11	976.55	519.76	-365.64	994.16	95.696	-321.44	1131.1	509.83	-379.75	1127.6	110.8	-502.53	1040.8	307.97	-352.43	670.43	493.89	-287.05	596.1	463.35	-355.01	583.18	473.61	-280.53	684.8	484.96	-341.01	516.13	464.02	-340.35	519.71	321.63	-431.32	371.25	486.21	-391.76	277.56	442.52	-451.42	303.86	474.98	-374.75	347.22	460.3	-499.84	106.81	438.02	-468.19	107.37	345.04	-571.72	76.223	380.01	-557.48	45.201	352.27	-564.02	46.897	416.75	-376.9	36.022	483.09	-339.65	39.569	359.64	-279	55.643	417.93	-272.04	712.56	104.69	-166.61	681.6	92.981	-225.43	635.7	119.25	-221.85	758.81	79.477	-153.31	576.36	102.59	-106.46	589.3	241.66	-212.26	445.49	95.116	-155.14	352.69	115.1	-216.28	368.46	101.7	-150.54	428.45	103.97	-241.06	156.5	143.96	-200.74	171.08	236.34	-307.91	132.89	201.03	-294.24	110.23	235.34	-304.14	104.04	173.93	-108.12	67.837	113.63	-65.038	86.667	229.09	-10.577	89.511	168.66	-431.73	1598.5	342.64	-503.28	1290	358.52
197	0.81667	-206.08	1296.1	281.79	-303.34	1537	484.18	-379.8	1560	160.5	-349.15	1865.6	324.82	-238.64	1029.2	436.67	-258.27	1043.3	174.62	-480.04	1079.6	359.58	-487.9	1075.7	256.89	-316.24	975.98	519.36	-359.47	993.97	95.181	-315.99	1130.3	509.57	-373.79	1127.2	110.38	-496.9	1040.6	307.28	-350.01	670.31	493.54	-285.19	595.49	463.28	-353.22	583.07	473.32	-277.95	684.11	484.89	-339.73	515.87	463.82	-338.64	519.33	321.38	-430.57	371.32	485.98	-391.23	277.48	442.44	-450.84	303.97	474.74	-374.03	347.11	460.18	-499.68	106.92	437.85	-467.9	107.35	344.91	-571.57	76.349	379.79	-557.31	45.279	352.16	-563.92	47.094	416.6	-376.89	35.916	483.06	-339.55	39.583	359.64	-278.88	55.413	418.02	-266.19	712.16	104.9	-160.69	681.13	93.63	-219.66	635.28	119.69	-215.85	758.33	79.788	-146.9	576.11	103.13	-101.39	588.8	242.47	-202.53	443.68	94.611	-142.99	352.34	114.33	-204.46	366.49	100.73	-140.4	428.26	103.7	-223.39	153.55	141.65	-183.75	168.51	234.3	-289.72	127.49	198.35	-275.29	104.84	232.51	-284.89	98.893	171.04	-87.776	69.185	111.02	-45.59	88.13	226.76	8.9028	93.214	166.51	-425.48	1598.1	342.38	-497.24	1289.6	358.2
198	0.82083	-199.94	1295.2	281.5	-297.01	1536.5	483.86	-373.45	1559.4	160.18	-343.66	1865.1	324.48	-233.15	1028.3	436.47	-252.26	1042.7	174.25	-474.44	1079.3	358.9	-482.09	1075.4	256.23	-311.38	975.36	518.98	-353.29	993.68	94.67	-310.53	1129.4	509.28	-367.81	1126.7	109.94	-491.27	1040.3	306.56	-347.57	670.18	493.2	-283.3	594.86	463.21	-351.41	582.95	473.03	-275.35	683.39	484.83	-338.42	515.6	463.63	-336.89	518.93	321.12	-429.79	371.38	485.75	-390.68	277.39	442.37	-450.24	304.07	474.48	-373.29	346.99	460.07	-499.51	107.03	437.67	-467.61	107.33	344.78	-571.42	76.479	379.56	-557.15	45.359	352.02	-563.82	47.297	416.45	-376.88	35.807	483.04	-339.44	39.601	359.63	-278.75	55.177	418.12	-260.44	711.65	105.11	-154.89	680.51	94.247	-214	634.71	120.11	-209.94	757.71	80.088	-140.57	575.76	103.64	-96.424	588.13	243.28	-192.84	441.89	94.064	-130.95	352.05	113.55	-192.7	364.59	99.718	-130.35	428.08	103.42	-205.81	150.82	139.29	-166.91	166.12	232.23	-271.57	122.33	195.57	-256.42	99.708	229.6	-265.7	94.019	168.06	-67.639	70.793	108.48	-26.41	89.821	224.53	28.084	97.13	164.5	-419.23	1597.6	342.09	-491.2	1289.1	357.85
